PathFileType	4	(X/Y/Z)	s01c0103.trc
DataRate	CameraRate	NumFrames	NumMarkers	Units	OrigDataRate	OrigDataStartFrame	OrigNumFrames
200	200	4	48	mm	200	1250	2000
Frame#	Time	racr			lacr			c7			jug			rlel			rdr			llel			ldr			s2			lic			ric			lasi			rasi			rpsi			lpsi			rgt			lgt			rth1			rth2			rth3			rth4			rlfc			rsh1			rsh2			rsh3			rsh4			rlmal			rmmal			rcal			rtoe			rmt5			lth1			lth2			lth4			lth3			llfc			lsh1			lsh2			lsh3			lsh4			llmal			lmmal			lcal			ltoe			lmt5			SBIKE			LBIKE			RBIKE			
		X1	Y1	Z1	X2	Y2	Z2	X3	Y3	Z3	X4	Y4	Z4	X5	Y5	Z5	X6	Y6	Z6	X7	Y7	Z7	X8	Y8	Z8	X9	Y9	Z9	X10	Y10	Z10	X11	Y11	Z11	X12	Y12	Z12	X13	Y13	Z13	X14	Y14	Z14	X15	Y15	Z15	X16	Y16	Z16	X17	Y17	Z17	X18	Y18	Z18	X19	Y19	Z19	X20	Y20	Z20	X21	Y21	Z21	X22	Y22	Z22	X23	Y23	Z23	X24	Y24	Z24	X25	Y25	Z25	X26	Y26	Z26	X27	Y27	Z27	X28	Y28	Z28	X29	Y29	Z29	X30	Y30	Z30	X31	Y31	Z31	X32	Y32	Z32	X33	Y33	Z33	X34	Y34	Z34	X35	Y35	Z35	X36	Y36	Z36	X37	Y37	Z37	X38	Y38	Z38	X39	Y39	Z39	X40	Y40	Z40	X41	Y41	Z41	X42	Y42	Z42	X43	Y43	Z43	X44	Y44	Z44	X45	Y45	Z45	X46	Y46	Z46	X47	Y47	Z47	X48	Y48	Z48	
1250	6.2500	491.668859	1336.925246	-151.838374	502.889209	1289.710596	-447.961234	455.029947	1388.925223	-296.947147	441.457270	1225.183525	-292.885772	565.192904	1074.369356	-50.979560	731.663613	865.771889	-92.437850	545.369409	1029.406851	-558.937258	712.856263	859.914973	-456.659742	0.000000	0.000000	-0.000000	96.444385	1168.443633	-460.742321	82.492274	1186.448041	-131.037412	102.035907	1119.723146	-437.175364	111.901827	1143.663338	-162.670928	-46.449451	1204.877943	-244.267744	-46.236871	1199.590278	-350.226729	49.225299	1088.124444	-93.937386	39.654458	1021.174120	-473.484628	163.573842	1030.053810	-80.366469	246.054285	1013.493347	-79.249249	331.976902	986.067516	-88.609992	259.669152	1063.027687	-102.989547	410.777597	910.481428	-109.498037	325.836384	831.105721	-79.703060	270.421844	767.112171	-84.694322	205.860561	706.282666	-95.380570	306.905159	734.210906	-118.743059	115.219033	623.929929	-114.604163	159.889106	610.427298	-191.692697	66.776995	623.757219	-170.549455	261.964140	435.415012	-147.762697	163.670734	483.994006	-81.508433	90.961800	903.195049	-475.110931	151.584851	838.134330	-471.117164	192.383570	874.209641	-468.757115	202.602513	772.971307	-450.088486	266.542679	667.520556	-433.096916	219.500091	565.900812	-466.140042	213.678707	480.042204	-457.176445	205.386821	395.663745	-442.091295	269.674980	479.279211	-431.148581	194.034087	268.166894	-423.061643	227.591580	298.423614	-337.623489	148.814189	246.176598	-382.270760	421.258050	186.403661	-384.983752	315.112714	173.820477	-451.802615	-230.565790	890.391978	-259.640817	-23.551171	79.872176	-458.297552	-23.831611	80.437704	-58.040291	
1251	6.2550	490.587164	1338.670864	-152.671734	503.694266	1289.295109	-446.811091	454.615454	1389.847281	-297.314638	441.002752	1226.060923	-292.877748	562.956376	1074.932346	-50.443681	731.315159	867.549105	-92.637845	546.873187	1030.062933	-558.717718	713.535565	859.144950	-456.853139	0.000000	0.000000	-0.000000	96.550911	1168.010526	-462.050492	81.892527	1187.627145	-132.467273	102.098444	1119.465236	-438.829733	111.587255	1144.800888	-163.981334	-46.782752	1205.327867	-246.625084	-46.368569	1199.796774	-352.361769	48.767144	1090.593360	-95.365509	38.611828	1020.970369	-474.918815	163.276025	1034.121790	-81.974846	245.898588	1018.696086	-81.038861	332.262662	992.713932	-90.037149	258.832151	1068.369387	-104.880542	412.904851	918.548486	-110.216397	329.148638	838.265131	-80.595164	274.520887	773.563208	-85.717188	210.776814	711.771093	-96.586511	311.623948	741.012163	-119.441985	121.338269	628.335679	-116.237311	166.500867	615.403442	-192.781846	72.841938	627.086886	-172.192229	271.418914	442.588795	-147.789075	171.942167	489.684595	-82.133775	88.027224	902.647806	-476.842734	147.386182	836.233452	-473.290878	188.862279	871.663282	-471.401491	197.128635	770.212120	-452.234434	259.499310	663.995259	-435.410704	211.956555	562.423950	-467.933434	205.893348	476.555624	-458.454107	197.402126	392.347366	-443.016617	262.182392	475.670767	-433.102752	186.524564	264.971372	-423.410093	221.546225	296.172471	-338.207387	141.391798	244.197852	-382.678898	412.736228	179.711586	-384.767005	306.455515	168.871436	-451.810978	-230.690851	890.401325	-259.801891	-23.594770	79.892360	-458.337578	-23.858592	80.444213	-58.077544	
1252	6.2600	489.194683	1340.350465	-153.403123	504.346213	1288.891765	-445.742145	454.197801	1390.755160	-297.659142	440.502967	1226.915559	-292.813250	560.529464	1075.644593	-49.662227	730.802784	869.302574	-92.688700	548.032606	1030.550976	-558.592591	714.651609	859.261100	-457.233162	0.000000	0.000000	-0.000000	96.877880	1168.133047	-463.586669	81.217983	1188.866738	-133.815878	101.886196	1119.359142	-440.338629	111.174931	1145.922408	-165.569772	-47.237318	1205.869054	-248.787616	-46.590235	1200.136868	-354.317006	48.195503	1093.088630	-96.583259	37.490602	1020.992153	-476.233680	162.930655	1038.159578	-83.562493	245.653684	1023.845163	-82.736386	332.202019	999.265500	-91.339630	258.015875	1073.537355	-106.911149	414.617138	926.595384	-110.936633	332.499631	844.907355	-81.590614	278.885752	779.529719	-86.805282	216.336053	716.691028	-97.893265	316.610593	747.358537	-120.233059	127.944323	632.112245	-117.581159	173.372471	619.677550	-193.797235	79.124148	629.683644	-173.492267	281.315741	449.257621	-147.770071	180.689945	494.681731	-82.999020	85.255172	902.357487	-478.546810	143.329188	834.845041	-475.444348	185.467646	869.556674	-474.052920	192.141619	767.233806	-454.063780	252.986017	660.895050	-437.651952	204.921656	559.593099	-469.613089	198.421295	473.814525	-459.750723	189.628546	389.620057	-443.986647	254.909218	472.656656	-434.888612	178.863366	262.515603	-423.844921	215.359071	294.379118	-338.800917	133.817967	242.898932	-383.062018	403.863091	173.492284	-384.611561	297.585853	164.509269	-451.894986	-230.794815	890.393181	-259.954097	-23.611829	79.813307	-458.417516	-23.869726	80.466097	-58.117715	
1253	6.2650	487.643035	1341.924692	-154.124834	504.839962	1288.521114	-444.799996	453.760929	1391.626574	-297.975335	439.959338	1227.741145	-292.686176	557.992538	1076.564719	-48.956259	730.110564	870.843525	-92.745111	548.857895	1030.938228	-558.550626	714.446431	858.401377	-457.891519	0.000000	0.000000	-0.000000	96.572203	1168.631379	-464.803345	80.630917	1190.139705	-135.010002	101.514139	1119.552343	-441.725137	110.633149	1147.570343	-167.178221	-48.225239	1206.923905	-250.539940	-46.893467	1200.616324	-356.089731	47.664520	1095.531194	-97.685956	36.189089	1021.179840	-477.721953	162.446892	1042.047789	-84.942468	245.337940	1028.781197	-84.218928	332.261963	1005.501176	-92.739098	256.634332	1078.683873	-109.150156	416.140545	934.160214	-112.069190	336.008668	851.093335	-82.623937	283.479450	784.758970	-87.882593	222.103577	720.805464	-98.965147	321.852202	753.152853	-121.223049	134.987295	635.021195	-118.638570	180.352839	623.278020	-194.724688	85.612406	631.680892	-174.277586	291.292004	455.410701	-147.757269	189.599492	498.921304	-83.639568	82.642450	902.340387	-480.223458	139.591763	833.761397	-477.546079	182.362118	867.819793	-476.650704	187.371750	765.372081	-456.446357	247.148729	658.443761	-439.738157	198.462473	557.473925	-471.198588	191.312439	471.746357	-460.942651	181.982378	387.690774	-444.808058	247.949685	470.321470	-436.552843	171.171630	260.782429	-424.298542	209.045445	293.041180	-339.400568	126.130855	242.286611	-383.398454	394.771464	167.927025	-384.457153	288.430140	160.751216	-451.863545	-230.832200	890.396104	-260.091786	-23.624939	79.817090	-458.454948	-23.890633	80.480126	-58.169276	
